<svg xmlns="http://www.w3.org/2000/svg" viewBox="0 0 182.6 239.48"><defs><style>.cls-1{fill:none;stroke:#a2cfe8;stroke-linecap:round;stroke-linejoin:round;stroke-width:12px;}</style></defs><g id="Layer_2" data-name="Layer 2"><g id="_1RVzYX.tif" data-name="1RVzYX.tif"><path class="cls-1" d="M85.08,6H97.52c3.2.48,6.43.85,9.61,1.47,61.45,11.89,89.67,82.62,53.37,133.59-20.72,29.11-41.32,58.3-62.06,87.39-1.39,2-3.56,3.37-5.36,5H89.52c-1.81-1.66-4-3.07-5.37-5q-31.25-43.83-62.29-87.78Q2.47,113.2,6.81,79.74A85.21,85.21,0,0,1,72.22,8.2C76.46,7.25,80.79,6.72,85.08,6ZM91.4,62.87a28.44,28.44,0,1,0,28.33,28.48A28.49,28.49,0,0,0,91.4,62.87Z"></path></g></g></svg>
