<svg xmlns="http://www.w3.org/2000/svg" viewBox="0 0 207.73 181.05"><defs><style>.cls-1{fill:none;stroke:#a2cfe8;stroke-linecap:round;stroke-linejoin:round;stroke-width:9px;}</style></defs><g id="Layer_2" data-name="Layer 2"><path class="cls-1" d="M106.17,47.24l-1.37-1.37a13.5,13.5,0,0,0-18.71-.37L69.23,61.1c-21.77,17.15-16.49,44.2-16.49,44.2l-7.7,8"/><path class="cls-1" d="M79.13,75l47-45.36a13.6,13.6,0,0,1,18.47-.37l2.47,2.19"/><path class="cls-1" d="M109.47,69l44.46-43.28a8.28,8.28,0,0,1,11.45-.09h0a8.28,8.28,0,0,1,.25,11.79L124,80.23"/><path class="cls-1" d="M134.54,92.76,168,60.4A10,10,0,0,0,167.93,46l-5.41-5.14"/><path class="cls-1" d="M163.51,66.16l3.94,3.25a10.65,10.65,0,0,1,.23,15.29l-31.82,31.82S119.37,146.2,84.4,138.29l-7.05,7.3"/><polygon class="cls-1" points="37.56 107.28 84.4 153.46 62.63 176.55 13.15 130.37 37.56 107.28"/><path class="cls-1" d="M26.35,116.52S-2,96.72,5.89,47.9,52.74,1.72,77.81,7.66c0,0,15.17,4.62,25.73,17.15,0,0,24.41-29,66-16.49S202.5,71,202.5,71s-.66,35-45.53,70.6c0,0-36.28,28.36-52.77,30.34,0,0-18.47-3.56-27-11"/></g></svg>