<svg xmlns="http://www.w3.org/2000/svg" viewBox="0 0 214 164"><defs><style>.cls-1{fill:none;stroke:#a2cfe8;stroke-linecap:round;stroke-linejoin:round;stroke-width:12px;}</style></defs><g id="Layer_2" data-name="Layer 2"><g id="flOk2w.tif"><path class="cls-1" d="M178.23,158H33.77c-3-.94-6.22-1.46-8.88-3.65L83.7,88.54c6.15,5.39,12.14,10.63,18.13,15.86,2.77,2.43,5.57,2.43,8.35,0,3.06-2.68,6.11-5.37,9.18-8.05l9-7.8,58.9,65.91a14.69,14.69,0,0,1-2.07,1.18C182.86,156.47,180.54,157.22,178.23,158Z"></path><path class="cls-1" d="M33.77,6H178.23l8.06,2.7L106,79,25.69,8.67Z"></path><path class="cls-1" d="M208,132.23c-.85,2.58-1.71,5.15-2.72,8.19L146.86,75.06l57.45-50.28c2.18,2.66,2.74,5.91,3.69,9Z"></path><path class="cls-1" d="M6,33.77C6.81,31.41,7.59,29,8.45,26.7a14.23,14.23,0,0,1,1.12-2L67.13,75.05,8.75,140.39,6,132.23Z"></path></g></g></svg>
