<svg xmlns="http://www.w3.org/2000/svg" viewBox="0 0 225 225"><defs><style>.cls-1{fill:none;stroke:#a2cfe8;stroke-linecap:round;stroke-linejoin:round;stroke-width:12px;}</style></defs><g id="Layer_2" data-name="Layer 2"><g id="H2CWwY"><path class="cls-1" d="M6,48.84C9.48,38.3,18.36,32.1,26,25.26c9.69-8.65,26.41-5.48,34.9,5.86a33.43,33.43,0,0,1,5,10c2.41,7.66,4.39,15.46,6.4,23.24,2.41,9.33.26,17.52-6.47,24.46-2.12,2.2-4.22,4.44-6.51,6.46a3.89,3.89,0,0,0-1.24,4.76c10,30.73,29.87,52.34,59.89,64.42,9.31,3.75,9.52,3.69,16.37-3.49,8.05-8.44,17.41-11,28.6-7.64,7.49,2.27,15.15,4,22.66,6.24,16,4.79,23.82,23.81,15.57,37.69a23.2,23.2,0,0,1-3.22,4c-2.53,2.66-5.27,5.12-7.75,7.83-4.09,4.48-8.46,8.47-14.63,9.85H162.08c-5.43-.71-10.89-1.22-16.28-2.15C105.62,210,72.05,191.22,45.57,160.2A162.24,162.24,0,0,1,8.4,80.39C7.42,74.6,6.79,68.75,6,62.92Z"></path><path class="cls-1" d="M121.07,6c5.78,1,11.63,1.78,17.32,3.16,40.85,10,72.5,44.27,79.29,85.78.49,3,.88,6,1.32,9v8.57H205.7c-.5-25.67-9.4-47.77-27.44-65.79S138.31,19.8,112.5,19.32V6Z"></path><path class="cls-1" d="M178.93,112.35H166C165.1,83.19,142.8,60.09,112.61,59V46.28C144.7,44.28,179.63,73.33,178.93,112.35Z"></path><path class="cls-1" d="M126,112.28c-1.09-7.78-5.43-12.33-13.39-13.16V86.18c12.5-1.36,27,10.89,26.41,26.1Z"></path></g></g></svg>
