<svg xmlns="http://www.w3.org/2000/svg" viewBox="0 0 253.35 221.2"><defs><style>.cls-1{fill:none;stroke:#a2cfe8;stroke-linecap:round;stroke-linejoin:round;stroke-width:9px;}</style></defs><g id="Layer_2" data-name="Layer 2"><path class="cls-1" d="M196.67,87.41s-3.1,3.87-30.22-3.87-38-3.88-38-3.88c-3.53,1.26-7.14,4.6-10.28,6.61-6.65,4.26-13.16,8.9-20,12.79-4.94,2.8-9.91,5.11-10,11.6,1.49,8-2.29,16.72-7.75,22.46-2.09,2.2-.48,9.46,1.2,11.67,3.29,4.35,9.69,3.48,14.29,2.28,12-3.12,18.72-13.6,17.81-25.72,10.66-2.74,20.53-6.37,30.69-.52,13.78,7.92,23.14,21.54,37.14,28.84,13.11,6.83,30.34,7.18,43.72.23"/><path class="cls-1" d="M56.42,89s23.24,2.32,33.31-6.2,36.19-2.15,36.19-2.15"/><path class="cls-1" d="M163.35,166.45s54.24,27.12,47.26-10.85"/><path class="cls-1" d="M149.4,183.49s45.45,26.92,47.13-7.85"/><path class="cls-1" d="M140.88,199s32.21,18.64,37.41-5.4"/><path class="cls-1" d="M121.63,207.79s29.82,18.84,35.77-2.73"/><path class="cls-1" d="M4.5,85.9v70.47H16.78A11.17,11.17,0,0,0,26.89,150L57.6,84.7a6.6,6.6,0,0,0-4.45-9.24L25.89,69A17.39,17.39,0,0,0,8.46,74.85h0A17.39,17.39,0,0,0,4.5,85.9Z"/><path class="cls-1" d="M248.85,85.9v70.47H236.57A11.17,11.17,0,0,1,226.46,150L195.75,84.7a6.6,6.6,0,0,1,4.45-9.24L227.46,69a17.36,17.36,0,0,1,17.42,5.86h0A17.35,17.35,0,0,1,248.85,85.9Z"/><line class="cls-1" x1="46.23" y1="159.32" x2="25.42" y2="151.72"/><ellipse class="cls-1" cx="74.24" cy="178.46" rx="18.98" ry="11.62" transform="translate(-117.43 153.52) rotate(-60)"/><ellipse class="cls-1" cx="93.61" cy="190.85" rx="18.98" ry="11.62" transform="translate(-118.48 176.49) rotate(-60)"/><ellipse class="cls-1" cx="112.11" cy="203.34" rx="13.57" ry="10.17" transform="translate(-113.73 257.28) rotate(-74.56)"/><ellipse class="cls-1" cx="57.1" cy="163.82" rx="13.57" ry="10.17" transform="translate(-105.9 104.41) rotate(-50.76)"/><line class="cls-1" x1="88.96" y1="50.22" x2="41.69" y2="20"/><line class="cls-1" x1="126.15" y1="50.22" x2="126.15" y2="4.5"/><line class="cls-1" x1="162.57" y1="50.22" x2="212.94" y2="18.45"/></g></svg>