<svg xmlns="http://www.w3.org/2000/svg" viewBox="0 0 240.64 242.32"><defs><style>.cls-1{fill:none;stroke:#a2cfe8;stroke-linecap:round;stroke-linejoin:round;stroke-width:12px;}</style></defs><g id="Layer_2" data-name="Layer 2"><g id="DHvjE2.tif"><path class="cls-1" d="M114.39,6.2a114.14,114.14,0,0,1,84.28,30.26c39.63,36.76,47.74,99.87,18.2,145.69-29.14,45.23-87.54,64-137.51,44-10.6-4.24-19.61-4.52-30-1.33C35.29,229.17,20.91,232.43,6,236.32c.38-1.72.56-2.7.82-3.67,4.6-16.85,9.35-33.66,13.67-50.58a13.76,13.76,0,0,0-.93-8.92C-5.09,125.37,9.6,66.25,50,31.94A109,109,0,0,1,114.39,6.2ZM149.31,175c17.79.08,29.66-10.3,29.31-24-.05-1.87-1.46-4.56-3-5.41-6.88-3.72-14.08-6.87-21.12-10.31-3.41-1.66-6-1.23-8.24,2.1-2.09,3.09-4.76,5.78-7,8.77s-4.56,3.29-7.89,1.88a77.68,77.68,0,0,1-34.48-27.85c-5.5-8-5.68-8,.58-15.25,4-4.66,5.47-9.16,2.27-15-2.47-4.51-3.94-9.54-6-14.3-4.12-9.73-14.25-11.42-21.67-3.65-10.37,10.86-12.5,25.4-4.53,40.64,10.48,20.06,24.71,37.16,44.29,49.05A99.14,99.14,0,0,0,149.31,175Z"></path></g></g></svg>
